<svg id="visual" viewBox="0 0 900 600" width="900" height="600" xmlns="http://www.w3.org/2000/svg" xmlns:xlink="http://www.w3.org/1999/xlink" version="1.1"><path d="M0 37L13.7 37C27.3 37 54.7 37 82 46C109.3 55 136.7 73 163.8 84C191 95 218 99 245.2 101C272.3 103 299.7 103 327 100C354.3 97 381.7 91 409 88C436.3 85 463.7 85 491 81C518.3 77 545.7 69 573 62C600.3 55 627.7 49 654.8 55C682 61 709 79 736.2 79C763.3 79 790.7 61 818 51C845.3 41 872.7 39 886.3 38L900 37L900 0L886.3 0C872.7 0 845.3 0 818 0C790.7 0 763.3 0 736.2 0C709 0 682 0 654.8 0C627.7 0 600.3 0 573 0C545.7 0 518.3 0 491 0C463.7 0 436.3 0 409 0C381.7 0 354.3 0 327 0C299.7 0 272.3 0 245.2 0C218 0 191 0 163.8 0C136.7 0 109.3 0 82 0C54.7 0 27.3 0 13.7 0L0 0Z" fill="#3a454c"></path><path d="M0 223L13.7 230C27.3 237 54.7 251 82 265C109.3 279 136.7 293 163.8 296C191 299 218 291 245.2 279C272.3 267 299.7 251 327 236C354.3 221 381.7 207 409 217C436.3 227 463.7 261 491 261C518.3 261 545.7 227 573 223C600.3 219 627.7 245 654.8 261C682 277 709 283 736.2 265C763.3 247 790.7 205 818 199C845.3 193 872.7 223 886.3 238L900 253L900 35L886.3 36C872.7 37 845.3 39 818 49C790.7 59 763.3 77 736.2 77C709 77 682 59 654.8 53C627.7 47 600.3 53 573 60C545.7 67 518.3 75 491 79C463.7 83 436.3 83 409 86C381.7 89 354.3 95 327 98C299.7 101 272.3 101 245.2 99C218 97 191 93 163.8 82C136.7 71 109.3 53 82 44C54.7 35 27.3 35 13.7 35L0 35Z" fill="#2a3238"></path><path d="M0 355L13.7 360C27.3 365 54.7 375 82 382C109.3 389 136.7 393 163.8 399C191 405 218 413 245.2 422C272.3 431 299.7 441 327 441C354.3 441 381.7 431 409 428C436.3 425 463.7 429 491 425C518.3 421 545.7 409 573 408C600.3 407 627.7 417 654.8 418C682 419 709 411 736.2 401C763.3 391 790.7 379 818 382C845.3 385 872.7 403 886.3 412L900 421L900 251L886.3 236C872.7 221 845.3 191 818 197C790.7 203 763.3 245 736.2 263C709 281 682 275 654.8 259C627.7 243 600.3 217 573 221C545.7 225 518.3 259 491 259C463.7 259 436.3 225 409 215C381.7 205 354.3 219 327 234C299.7 249 272.3 265 245.2 277C218 289 191 297 163.8 294C136.7 291 109.3 277 82 263C54.7 249 27.3 235 13.7 228L0 221Z" fill="#1b2125"></path><path d="M0 517L13.7 521C27.3 525 54.7 533 82 536C109.3 539 136.7 537 163.8 537C191 537 218 539 245.2 536C272.3 533 299.7 525 327 520C354.3 515 381.7 513 409 508C436.3 503 463.7 495 491 492C518.3 489 545.7 491 573 494C600.3 497 627.7 501 654.8 511C682 521 709 537 736.2 532C763.3 527 790.7 501 818 493C845.3 485 872.7 495 886.3 500L900 505L900 419L886.3 410C872.7 401 845.3 383 818 380C790.7 377 763.3 389 736.2 399C709 409 682 417 654.8 416C627.7 415 600.3 405 573 406C545.7 407 518.3 419 491 423C463.7 427 436.3 423 409 426C381.7 429 354.3 439 327 439C299.7 439 272.3 429 245.2 420C218 411 191 403 163.8 397C136.7 391 109.3 387 82 380C54.7 373 27.3 363 13.7 358L0 353Z" fill="#191d21"></path><path d="M0 601L13.7 601C27.3 601 54.7 601 82 601C109.3 601 136.7 601 163.8 601C191 601 218 601 245.2 601C272.3 601 299.7 601 327 601C354.3 601 381.7 601 409 601C436.3 601 463.7 601 491 601C518.3 601 545.7 601 573 601C600.3 601 627.7 601 654.8 601C682 601 709 601 736.2 601C763.3 601 790.7 601 818 601C845.3 601 872.7 601 886.3 601L900 601L900 503L886.3 498C872.7 493 845.3 483 818 491C790.7 499 763.3 525 736.2 530C709 535 682 519 654.8 509C627.7 499 600.3 495 573 492C545.7 489 518.3 487 491 490C463.7 493 436.3 501 409 506C381.7 511 354.3 513 327 518C299.7 523 272.3 531 245.2 534C218 537 191 535 163.8 535C136.7 535 109.3 537 82 534C54.7 531 27.3 523 13.7 519L0 515Z" fill="#161a1d"></path></svg>